<svg xmlns="http://www.w3.org/2000/svg" xmlns:xlink="http://www.w3.org/1999/xlink" version="1.1" class="marks" width="578" height="144" viewBox="0 0 578 144"><rect width="578" height="144" fill="white"/><g fill="none" stroke-miterlimit="10" transform="translate(67,27)"><g class="mark-group role-frame root" role="graphics-object" aria-roledescription="group mark container"><g transform="translate(0,0)"><path class="background" aria-hidden="true" d="M0.5,0.5h400v80h-400Z" stroke="#ddd"/><g><g class="mark-group role-axis" aria-hidden="true"><g transform="translate(0.5,80.5)"><path class="background" aria-hidden="true" d="M0,0h0v0h0Z" pointer-events="none"/><g><g class="mark-rule role-axis-grid" pointer-events="none"><line transform="translate(0,-80)" x2="0" y2="80" stroke="#ddd" stroke-width="1" opacity="1"/><line transform="translate(50,-80)" x2="0" y2="80" stroke="#ddd" stroke-width="1" opacity="1"/><line transform="translate(100,-80)" x2="0" y2="80" stroke="#ddd" stroke-width="1" opacity="1"/><line transform="translate(150,-80)" x2="0" y2="80" stroke="#ddd" stroke-width="1" opacity="1"/><line transform="translate(200,-80)" x2="0" y2="80" stroke="#ddd" stroke-width="1" opacity="1"/><line transform="translate(250,-80)" x2="0" y2="80" stroke="#ddd" stroke-width="1" opacity="1"/><line transform="translate(300,-80)" x2="0" y2="80" stroke="#ddd" stroke-width="1" opacity="1"/><line transform="translate(350,-80)" x2="0" y2="80" stroke="#ddd" stroke-width="1" opacity="1"/><line transform="translate(400,-80)" x2="0" y2="80" stroke="#ddd" stroke-width="1" opacity="1"/></g></g><path class="foreground" aria-hidden="true" d="" pointer-events="none" display="none"/></g></g><g class="mark-group role-axis" aria-hidden="true"><g transform="translate(0.5,0.5)"><path class="background" aria-hidden="true" d="M0,0h0v0h0Z" pointer-events="none"/><g><g class="mark-rule role-axis-grid" pointer-events="none"><line transform="translate(0,80)" x2="400" y2="0" stroke="#ddd" stroke-width="1" opacity="1"/><line transform="translate(0,40)" x2="400" y2="0" stroke="#ddd" stroke-width="1" opacity="1"/><line transform="translate(0,0)" x2="400" y2="0" stroke="#ddd" stroke-width="1" opacity="1"/></g></g><path class="foreground" aria-hidden="true" d="" pointer-events="none" display="none"/></g></g><g class="mark-group role-axis" role="graphics-symbol" aria-roledescription="axis" aria-label="X-axis titled 'Body Mass (g)' for a linear scale with values from 2,500 to 6,500"><g transform="translate(0.5,80.5)"><path class="background" aria-hidden="true" d="M0,0h0v0h0Z" pointer-events="none"/><g><g class="mark-rule role-axis-tick" pointer-events="none"><line transform="translate(0,0)" x2="0" y2="5" stroke="#888" stroke-width="1" opacity="1"/><line transform="translate(50,0)" x2="0" y2="5" stroke="#888" stroke-width="1" opacity="1"/><line transform="translate(100,0)" x2="0" y2="5" stroke="#888" stroke-width="1" opacity="1"/><line transform="translate(150,0)" x2="0" y2="5" stroke="#888" stroke-width="1" opacity="1"/><line transform="translate(200,0)" x2="0" y2="5" stroke="#888" stroke-width="1" opacity="1"/><line transform="translate(250,0)" x2="0" y2="5" stroke="#888" stroke-width="1" opacity="1"/><line transform="translate(300,0)" x2="0" y2="5" stroke="#888" stroke-width="1" opacity="1"/><line transform="translate(350,0)" x2="0" y2="5" stroke="#888" stroke-width="1" opacity="1"/><line transform="translate(400,0)" x2="0" y2="5" stroke="#888" stroke-width="1" opacity="1"/></g><g class="mark-text role-axis-label" pointer-events="none"><text text-anchor="start" transform="translate(0,15)" font-family="sans-serif" font-size="10px" fill="#000" opacity="1">2,500</text><text text-anchor="middle" transform="translate(50,15)" font-family="sans-serif" font-size="10px" fill="#000" opacity="0">3,000</text><text text-anchor="middle" transform="translate(100,15)" font-family="sans-serif" font-size="10px" fill="#000" opacity="1">3,500</text><text text-anchor="middle" transform="translate(150,15)" font-family="sans-serif" font-size="10px" fill="#000" opacity="0">4,000</text><text text-anchor="middle" transform="translate(200,15)" font-family="sans-serif" font-size="10px" fill="#000" opacity="1">4,500</text><text text-anchor="middle" transform="translate(250,15)" font-family="sans-serif" font-size="10px" fill="#000" opacity="0">5,000</text><text text-anchor="middle" transform="translate(300,15)" font-family="sans-serif" font-size="10px" fill="#000" opacity="1">5,500</text><text text-anchor="middle" transform="translate(350,15)" font-family="sans-serif" font-size="10px" fill="#000" opacity="0">6,000</text><text text-anchor="end" transform="translate(400,15)" font-family="sans-serif" font-size="10px" fill="#000" opacity="1">6,500</text></g><g class="mark-rule role-axis-domain" pointer-events="none"><line transform="translate(0,0)" x2="400" y2="0" stroke="#888" stroke-width="1" opacity="1"/></g><g class="mark-text role-axis-title" pointer-events="none"><text text-anchor="middle" transform="translate(200,30)" font-family="sans-serif" font-size="11px" font-weight="bold" fill="#000" opacity="1">Body Mass (g)</text></g></g><path class="foreground" aria-hidden="true" d="" pointer-events="none" display="none"/></g></g><g class="mark-group role-axis" role="graphics-symbol" aria-roledescription="axis" aria-label="Y-axis titled 'density' for a linear scale with values from 0.0000 to 0.0020"><g transform="translate(0.5,0.5)"><path class="background" aria-hidden="true" d="M0,0h0v0h0Z" pointer-events="none"/><g><g class="mark-rule role-axis-tick" pointer-events="none"><line transform="translate(0,80)" x2="-5" y2="0" stroke="#888" stroke-width="1" opacity="1"/><line transform="translate(0,40)" x2="-5" y2="0" stroke="#888" stroke-width="1" opacity="1"/><line transform="translate(0,0)" x2="-5" y2="0" stroke="#888" stroke-width="1" opacity="1"/></g><g class="mark-text role-axis-label" pointer-events="none"><text text-anchor="end" transform="translate(-7,83)" font-family="sans-serif" font-size="10px" fill="#000" opacity="1">0.000</text><text text-anchor="end" transform="translate(-7,43)" font-family="sans-serif" font-size="10px" fill="#000" opacity="1">0.001</text><text text-anchor="end" transform="translate(-7,3)" font-family="sans-serif" font-size="10px" fill="#000" opacity="1">0.002</text></g><g class="mark-rule role-axis-domain" pointer-events="none"><line transform="translate(0,80)" x2="0" y2="-80" stroke="#888" stroke-width="1" opacity="1"/></g><g class="mark-text role-axis-title" pointer-events="none"><text text-anchor="middle" transform="translate(-51,40) rotate(-90) translate(0,-2)" font-family="sans-serif" font-size="11px" font-weight="bold" fill="#000" opacity="1">density</text></g></g><path class="foreground" aria-hidden="true" d="" pointer-events="none" display="none"/></g></g><g class="mark-group role-scope pathgroup" role="graphics-object" aria-roledescription="group mark container"><g transform="translate(0,0)"><path class="background" aria-hidden="true" d="M0,0h400v80h-400Z"/><g><g class="mark-area role-mark marks" role="graphics-object" aria-roledescription="area mark container"><path aria-label="Body Mass (g): 2500; density: 0.000010403897536; Species: Adelie" role="graphics-symbol" aria-roledescription="area mark" d="M0,78.86L2,78.61L4,78.324L6,78L8,77.638L10,77.237L12,76.797L14,76.319L16,75.803L18,75.251L20,74.665L22,74.045L24,73.394L26,72.712L28,72.001L30,71.261L32,70.491L34,69.689L36,68.851L38,67.972L40,67.045L42,66.061L44,65.01L46,63.879L48,62.655L50,61.327L52,59.883L54,58.313L56,56.611L58,54.774L60,52.803L62,50.706L64,48.494L66,46.184L68,43.798L70,41.36L72,38.896L74,36.433L76,34L78,31.621L80,29.318L82,27.109L84,25.007L86,23.019L88,21.151L90,19.402L92,17.769L94,16.246L96,14.829L98,13.513L100,12.295L102,11.175L104,10.158L106,9.25L108,8.461L110,7.804L112,7.294L114,6.944L116,6.767L118,6.772L120,6.964L122,7.345L124,7.911L126,8.65L128,9.55L130,10.591L132,11.753L134,13.015L136,14.354L138,15.75L140,17.185L142,18.644L144,20.114L146,21.586L148,23.054L150,24.511L152,25.953L154,27.375L156,28.773L158,30.139L160,31.467L162,32.746L164,33.967L166,35.121L168,36.198L170,37.19L172,38.091L174,38.898L176,39.609L178,40.228L180,40.76L182,41.211L184,41.591L186,41.911L188,42.182L190,42.414L192,42.618L194,42.802L196,42.974L198,43.141L200,43.306L202,43.473L204,43.643L206,43.819L208,44L210,44.189L212,44.387L214,44.596L216,44.819L218,45.06L220,45.323L222,45.612L224,45.932L226,46.287L228,46.678L230,47.108L232,47.576L234,48.08L236,48.617L238,49.182L240,49.767L242,50.367L244,50.972L246,51.575L248,52.168L250,52.743L252,53.294L254,53.815L256,54.301L258,54.749L260,55.157L262,55.523L264,55.846L266,56.129L268,56.371L270,56.575L272,56.745L274,56.883L276,56.993L278,57.081L280,57.151L282,57.208L284,57.259L286,57.308L288,57.362L290,57.426L292,57.506L294,57.607L296,57.733L298,57.89L300,58.081L302,58.309L304,58.576L306,58.884L308,59.233L310,59.624L312,60.056L314,60.527L316,61.034L318,61.576L320,62.148L322,62.748L324,63.371L326,64.014L328,64.671L330,65.341L332,66.017L334,66.698L336,67.379L338,68.057L340,68.729L342,69.392L344,70.044L346,70.682L348,71.305L350,71.91L352,72.494L354,73.058L356,73.598L358,74.114L360,74.605L362,75.069L364,75.506L366,75.916L368,76.299L370,76.654L372,76.983L374,77.285L376,77.563L378,77.816L380,78.048L382,78.258L384,78.449L386,78.622L388,78.778L390,78.919L392,79.047L394,79.161L396,79.265L398,79.358L400,79.442L400,79.442L398,79.358L396,79.265L394,79.161L392,79.047L390,78.919L388,78.778L386,78.622L384,78.449L382,78.258L380,78.048L378,77.816L376,77.563L374,77.285L372,76.983L370,76.654L368,76.299L366,75.916L364,75.506L362,75.069L360,74.605L358,74.114L356,73.598L354,73.058L352,72.494L350,71.91L348,71.305L346,70.682L344,70.044L342,69.392L340,68.729L338,68.057L336,67.379L334,66.698L332,66.017L330,65.341L328,64.671L326,64.014L324,63.371L322,62.748L320,62.148L318,61.576L316,61.034L314,60.527L312,60.056L310,59.624L308,59.233L306,58.884L304,58.576L302,58.309L300,58.081L298,57.891L296,57.734L294,57.607L292,57.507L290,57.428L288,57.365L286,57.313L284,57.266L282,57.219L280,57.166L278,57.103L276,57.024L274,56.925L272,56.803L270,56.655L268,56.478L266,56.27L264,56.032L262,55.764L260,55.466L258,55.142L256,54.794L254,54.427L252,54.046L250,53.658L248,53.269L246,52.887L244,52.519L242,52.174L240,51.859L238,51.579L236,51.341L234,51.15L232,51.007L230,50.913L228,50.868L226,50.87L224,50.915L222,50.999L220,51.117L218,51.265L216,51.439L214,51.636L212,51.853L210,52.088L208,52.34L206,52.61L204,52.897L202,53.2L200,53.517L198,53.846L196,54.18L194,54.513L192,54.836L190,55.139L188,55.409L186,55.634L184,55.801L182,55.898L180,55.914L178,55.841L176,55.675L174,55.413L172,55.059L170,54.616L168,54.094L166,53.503L164,52.857L162,52.166L160,51.443L158,50.698L156,49.939L154,49.17L152,48.393L150,47.607L148,46.811L146,46.001L144,45.175L142,44.333L140,43.477L138,42.613L136,41.753L134,40.91L132,40.104L130,39.356L128,38.688L126,38.122L124,37.679L122,37.376L120,37.225L118,37.231L116,37.396L114,37.714L112,38.174L110,38.761L108,39.46L106,40.251L104,41.118L102,42.046L100,43.023L98,44.043L96,45.102L94,46.2L92,47.343L90,48.536L88,49.786L86,51.101L84,52.484L82,53.938L80,55.459L78,57.04L76,58.669L74,60.329L72,62.002L70,63.663L68,65.29L66,66.857L64,68.344L62,69.73L60,70.999L58,72.141L56,73.148L54,74.019L52,74.757L50,75.37L48,75.866L46,76.26L44,76.565L42,76.797L40,76.969L38,77.097L36,77.192L34,77.267L32,77.331L30,77.392L28,77.457L26,77.529L24,77.613L22,77.71L20,77.82L18,77.945L16,78.081L14,78.226L12,78.38L10,78.537L8,78.695L6,78.851L4,79.001L2,79.144L0,79.276Z" fill="#4c78a8"/></g></g><path class="foreground" aria-hidden="true" d="" display="none"/></g><g transform="translate(0,0)"><path class="background" aria-hidden="true" d="M0,0h400v80h-400Z"/><g><g class="mark-area role-mark marks" role="graphics-object" aria-roledescription="area mark container"><path aria-label="Body Mass (g): 2500; density: 0.000018097612155; Species: Chinstrap" role="graphics-symbol" aria-roledescription="area mark" d="M0,79.276L2,79.144L4,79.001L6,78.851L8,78.695L10,78.537L12,78.38L14,78.226L16,78.081L18,77.945L20,77.82L22,77.71L24,77.613L26,77.529L28,77.457L30,77.392L32,77.331L34,77.267L36,77.192L38,77.097L40,76.969L42,76.797L44,76.565L46,76.26L48,75.866L50,75.37L52,74.757L54,74.019L56,73.148L58,72.141L60,70.999L62,69.73L64,68.344L66,66.857L68,65.29L70,63.663L72,62.002L74,60.329L76,58.669L78,57.04L80,55.459L82,53.938L84,52.484L86,51.101L88,49.786L90,48.536L92,47.343L94,46.2L96,45.102L98,44.043L100,43.023L102,42.046L104,41.118L106,40.251L108,39.46L110,38.761L112,38.174L114,37.714L116,37.396L118,37.231L120,37.225L122,37.376L124,37.679L126,38.122L128,38.688L130,39.356L132,40.104L134,40.91L136,41.753L138,42.613L140,43.477L142,44.333L144,45.175L146,46.001L148,46.811L150,47.607L152,48.393L154,49.17L156,49.939L158,50.698L160,51.443L162,52.166L164,52.857L166,53.503L168,54.094L170,54.616L172,55.059L174,55.413L176,55.675L178,55.841L180,55.914L182,55.898L184,55.801L186,55.634L188,55.409L190,55.139L192,54.836L194,54.513L196,54.18L198,53.846L200,53.517L202,53.2L204,52.897L206,52.61L208,52.34L210,52.088L212,51.853L214,51.636L216,51.439L218,51.265L220,51.117L222,50.999L224,50.915L226,50.87L228,50.868L230,50.913L232,51.007L234,51.15L236,51.341L238,51.579L240,51.859L242,52.174L244,52.519L246,52.887L248,53.269L250,53.658L252,54.046L254,54.427L256,54.794L258,55.142L260,55.466L262,55.764L264,56.032L266,56.27L268,56.478L270,56.655L272,56.803L274,56.925L276,57.024L278,57.103L280,57.166L282,57.219L284,57.266L286,57.313L288,57.365L290,57.428L292,57.507L294,57.607L296,57.734L298,57.891L300,58.081L302,58.309L304,58.576L306,58.884L308,59.233L310,59.624L312,60.056L314,60.527L316,61.034L318,61.576L320,62.148L322,62.748L324,63.371L326,64.014L328,64.671L330,65.341L332,66.017L334,66.698L336,67.379L338,68.057L340,68.729L342,69.392L344,70.044L346,70.682L348,71.305L350,71.91L352,72.494L354,73.058L356,73.598L358,74.114L360,74.605L362,75.069L364,75.506L366,75.916L368,76.299L370,76.654L372,76.983L374,77.285L376,77.563L378,77.816L380,78.048L382,78.258L384,78.449L386,78.622L388,78.778L390,78.919L392,79.047L394,79.161L396,79.265L398,79.358L400,79.442L400,79.442L398,79.358L396,79.265L394,79.161L392,79.047L390,78.919L388,78.778L386,78.622L384,78.449L382,78.258L380,78.048L378,77.816L376,77.563L374,77.285L372,76.983L370,76.654L368,76.299L366,75.916L364,75.506L362,75.069L360,74.605L358,74.114L356,73.598L354,73.058L352,72.494L350,71.91L348,71.305L346,70.682L344,70.044L342,69.392L340,68.729L338,68.057L336,67.379L334,66.698L332,66.017L330,65.341L328,64.671L326,64.014L324,63.371L322,62.748L320,62.148L318,61.576L316,61.034L314,60.527L312,60.056L310,59.624L308,59.233L306,58.884L304,58.576L302,58.309L300,58.081L298,57.891L296,57.734L294,57.608L292,57.508L290,57.429L288,57.367L286,57.316L284,57.27L282,57.225L280,57.176L278,57.117L276,57.045L274,56.955L272,56.846L270,56.714L268,56.559L266,56.38L264,56.178L262,55.955L260,55.713L258,55.455L256,55.186L254,54.91L252,54.634L250,54.362L248,54.101L246,53.858L244,53.639L242,53.45L240,53.298L238,53.189L236,53.128L234,53.119L232,53.166L230,53.273L228,53.442L226,53.673L224,53.968L222,54.324L220,54.739L218,55.211L216,55.736L214,56.308L212,56.921L210,57.57L208,58.249L206,58.95L204,59.668L202,60.397L200,61.13L198,61.864L196,62.594L194,63.317L192,64.029L190,64.73L188,65.417L186,66.09L184,66.749L182,67.394L180,68.025L178,68.644L176,69.249L174,69.843L172,70.424L170,70.993L168,71.55L166,72.094L164,72.625L162,73.142L160,73.643L158,74.128L156,74.596L154,75.044L152,75.473L150,75.882L148,76.269L146,76.634L144,76.976L142,77.296L140,77.593L138,77.867L136,78.119L134,78.349L132,78.559L130,78.748L128,78.918L126,79.07L124,79.206L122,79.325L120,79.43L118,79.521L116,79.601L114,79.669L112,79.727L110,79.777L108,79.819L106,79.854L104,79.883L102,79.907L100,79.927L98,79.943L96,79.955L94,79.966L92,79.974L90,79.98L88,79.985L86,79.989L84,79.992L82,79.994L80,79.996L78,79.997L76,79.998L74,79.998L72,79.999L70,79.999L68,79.999L66,80L64,80L62,80L60,80L58,80L56,80L54,80L52,80L50,80L48,80L46,80L44,80L42,80L40,80L38,80L36,80L34,80L32,80L30,80L28,80L26,80L24,80L22,80L20,80L18,80L16,80L14,80L12,80L10,80L8,80L6,80L4,80L2,80L0,80Z" fill="#f58518"/></g></g><path class="foreground" aria-hidden="true" d="" display="none"/></g><g transform="translate(0,0)"><path class="background" aria-hidden="true" d="M0,0h400v80h-400Z"/><g><g class="mark-area role-mark marks" role="graphics-object" aria-roledescription="area mark container"><path aria-label="Body Mass (g): 2500; density: 1.60574227996e-16; Species: Gentoo" role="graphics-symbol" aria-roledescription="area mark" d="M0,80L2,80L4,80L6,80L8,80L10,80L12,80L14,80L16,80L18,80L20,80L22,80L24,80L26,80L28,80L30,80L32,80L34,80L36,80L38,80L40,80L42,80L44,80L46,80L48,80L50,80L52,80L54,80L56,80L58,80L60,80L62,80L64,80L66,80L68,79.999L70,79.999L72,79.999L74,79.998L76,79.998L78,79.997L80,79.996L82,79.994L84,79.992L86,79.989L88,79.985L90,79.98L92,79.974L94,79.966L96,79.955L98,79.943L100,79.927L102,79.907L104,79.883L106,79.854L108,79.819L110,79.777L112,79.727L114,79.669L116,79.601L118,79.521L120,79.43L122,79.325L124,79.206L126,79.07L128,78.918L130,78.748L132,78.559L134,78.349L136,78.119L138,77.867L140,77.593L142,77.296L144,76.976L146,76.634L148,76.269L150,75.882L152,75.473L154,75.044L156,74.596L158,74.128L160,73.643L162,73.142L164,72.625L166,72.094L168,71.55L170,70.993L172,70.424L174,69.843L176,69.249L178,68.644L180,68.025L182,67.394L184,66.749L186,66.09L188,65.417L190,64.73L192,64.029L194,63.317L196,62.594L198,61.864L200,61.13L202,60.397L204,59.668L206,58.95L208,58.249L210,57.57L212,56.921L214,56.308L216,55.736L218,55.211L220,54.739L222,54.324L224,53.968L226,53.673L228,53.442L230,53.273L232,53.166L234,53.119L236,53.128L238,53.189L240,53.298L242,53.45L244,53.639L246,53.858L248,54.101L250,54.362L252,54.634L254,54.91L256,55.186L258,55.455L260,55.713L262,55.955L264,56.178L266,56.38L268,56.559L270,56.714L272,56.846L274,56.955L276,57.045L278,57.117L280,57.176L282,57.225L284,57.27L286,57.316L288,57.367L290,57.429L292,57.508L294,57.608L296,57.734L298,57.891L300,58.081L302,58.309L304,58.576L306,58.884L308,59.233L310,59.624L312,60.056L314,60.527L316,61.034L318,61.576L320,62.148L322,62.748L324,63.371L326,64.014L328,64.671L330,65.341L332,66.017L334,66.698L336,67.379L338,68.057L340,68.729L342,69.392L344,70.044L346,70.682L348,71.305L350,71.91L352,72.494L354,73.058L356,73.598L358,74.114L360,74.605L362,75.069L364,75.506L366,75.916L368,76.299L370,76.654L372,76.983L374,77.285L376,77.563L378,77.816L380,78.048L382,78.258L384,78.449L386,78.622L388,78.778L390,78.919L392,79.047L394,79.161L396,79.265L398,79.358L400,79.442L400,80L398,80L396,80L394,80L392,80L390,80L388,80L386,80L384,80L382,80L380,80L378,80L376,80L374,80L372,80L370,80L368,80L366,80L364,80L362,80L360,80L358,80L356,80L354,80L352,80L350,80L348,80L346,80L344,80L342,80L340,80L338,80L336,80L334,80L332,80L330,80L328,80L326,80L324,80L322,80L320,80L318,80L316,80L314,80L312,80L310,80L308,80L306,80L304,80L302,80L300,80L298,80L296,80L294,80L292,80L290,80L288,80L286,80L284,80L282,80L280,80L278,80L276,80L274,80L272,80L270,80L268,80L266,80L264,80L262,80L260,80L258,80L256,80L254,80L252,80L250,80L248,80L246,80L244,80L242,80L240,80L238,80L236,80L234,80L232,80L230,80L228,80L226,80L224,80L222,80L220,80L218,80L216,80L214,80L212,80L210,80L208,80L206,80L204,80L202,80L200,80L198,80L196,80L194,80L192,80L190,80L188,80L186,80L184,80L182,80L180,80L178,80L176,80L174,80L172,80L170,80L168,80L166,80L164,80L162,80L160,80L158,80L156,80L154,80L152,80L150,80L148,80L146,80L144,80L142,80L140,80L138,80L136,80L134,80L132,80L130,80L128,80L126,80L124,80L122,80L120,80L118,80L116,80L114,80L112,80L110,80L108,80L106,80L104,80L102,80L100,80L98,80L96,80L94,80L92,80L90,80L88,80L86,80L84,80L82,80L80,80L78,80L76,80L74,80L72,80L70,80L68,80L66,80L64,80L62,80L60,80L58,80L56,80L54,80L52,80L50,80L48,80L46,80L44,80L42,80L40,80L38,80L36,80L34,80L32,80L30,80L28,80L26,80L24,80L22,80L20,80L18,80L16,80L14,80L12,80L10,80L8,80L6,80L4,80L2,80L0,80Z" fill="#e45756"/></g></g><path class="foreground" aria-hidden="true" d="" display="none"/></g></g><g class="mark-group role-legend" role="graphics-symbol" aria-roledescription="legend" aria-label="Symbol legend titled 'Species' for fill color with 3 values: Adelie, Chinstrap, Gentoo"><g transform="translate(418,0)"><path class="background" aria-hidden="true" d="M0,0h88v53h-88Z" pointer-events="none"/><g><g class="mark-group role-legend-entry"><g transform="translate(0,16)"><path class="background" aria-hidden="true" d="M0,0h0v0h0Z" pointer-events="none"/><g><g class="mark-group role-scope" role="graphics-object" aria-roledescription="group mark container"><g transform="translate(0,0)"><path class="background" aria-hidden="true" d="M0,0h88v11h-88Z" pointer-events="none" opacity="1"/><g><g class="mark-symbol role-legend-symbol" pointer-events="none"><path transform="translate(6,6)" d="M5,0A5,5,0,1,1,-5,0A5,5,0,1,1,5,0" fill="#4c78a8" stroke-width="1.5" opacity="1"/></g><g class="mark-text role-legend-label" pointer-events="none"><text text-anchor="start" transform="translate(16,9)" font-family="sans-serif" font-size="10px" fill="#000" opacity="1">Adelie</text></g></g><path class="foreground" aria-hidden="true" d="" pointer-events="none" display="none"/></g><g transform="translate(0,13)"><path class="background" aria-hidden="true" d="M0,0h88v11h-88Z" pointer-events="none" opacity="1"/><g><g class="mark-symbol role-legend-symbol" pointer-events="none"><path transform="translate(6,6)" d="M5,0A5,5,0,1,1,-5,0A5,5,0,1,1,5,0" fill="#f58518" stroke-width="1.5" opacity="1"/></g><g class="mark-text role-legend-label" pointer-events="none"><text text-anchor="start" transform="translate(16,9)" font-family="sans-serif" font-size="10px" fill="#000" opacity="1">Chinstrap</text></g></g><path class="foreground" aria-hidden="true" d="" pointer-events="none" display="none"/></g><g transform="translate(0,26)"><path class="background" aria-hidden="true" d="M0,0h88v11h-88Z" pointer-events="none" opacity="1"/><g><g class="mark-symbol role-legend-symbol" pointer-events="none"><path transform="translate(6,6)" d="M5,0A5,5,0,1,1,-5,0A5,5,0,1,1,5,0" fill="#e45756" stroke-width="1.5" opacity="1"/></g><g class="mark-text role-legend-label" pointer-events="none"><text text-anchor="start" transform="translate(16,9)" font-family="sans-serif" font-size="10px" fill="#000" opacity="1">Gentoo</text></g></g><path class="foreground" aria-hidden="true" d="" pointer-events="none" display="none"/></g></g></g><path class="foreground" aria-hidden="true" d="" pointer-events="none" display="none"/></g></g><g class="mark-text role-legend-title" pointer-events="none"><text text-anchor="start" transform="translate(0,9)" font-family="sans-serif" font-size="11px" font-weight="bold" fill="#000" opacity="1">Species</text></g></g><path class="foreground" aria-hidden="true" d="" pointer-events="none" display="none"/></g></g><g class="mark-group role-title"><g transform="translate(200,-22)"><path class="background" aria-hidden="true" d="M0,0h0v0h0Z" pointer-events="none"/><g><g class="mark-text role-title-text" role="graphics-symbol" aria-roledescription="title" aria-label="Title text 'Distribution of Body Mass of Penguins'" pointer-events="none"><text text-anchor="middle" transform="translate(0,10)" font-family="sans-serif" font-size="13px" font-weight="bold" fill="#000" opacity="1">Distribution of Body Mass of Penguins</text></g></g><path class="foreground" aria-hidden="true" d="" pointer-events="none" display="none"/></g></g></g><path class="foreground" aria-hidden="true" d="" display="none"/></g></g></g></svg>